<?xml version="1.0" encoding="UTF-8" standalone="no"?>
<!DOCTYPE svg PUBLIC "-//W3C//DTD SVG 1.1//EN"
 "http://www.w3.org/Graphics/SVG/1.1/DTD/svg11.dtd">
<!-- Generated by graphviz version 2.40.1 (20161225.0304)
 -->
<!-- Title: /data/ssd/files/a0393608/work/code/ti/edgeai&#45;algo/edgeai&#45;benchmark/work_dirs/modelartifacts/8bits/cl&#45;0000_tflitert_imagenet1k_mlperf_mobilenet_v1_1.0_224_tflite/artifacts/tempDir/runtimes_visualization.svg Pages: 1 -->
<svg width="1108pt" height="1009pt"
 viewBox="0.00 0.00 1108.00 1008.80" xmlns="http://www.w3.org/2000/svg" xmlns:xlink="http://www.w3.org/1999/xlink">
<g id="graph0" class="graph" transform="scale(1 1) rotate(0) translate(468 994.4)">
<title>/data/ssd/files/a0393608/work/code/ti/edgeai&#45;algo/edgeai&#45;benchmark/work_dirs/modelartifacts/8bits/cl&#45;0000_tflitert_imagenet1k_mlperf_mobilenet_v1_1.0_224_tflite/artifacts/tempDir/runtimes_visualization.svg</title>
<polygon fill="#ffffff" stroke="transparent" points="-468,14.4 -468,-994.4 640,-994.4 640,14.4 -468,14.4"/>
<g id="clust1" class="cluster">
<title>cluster_0</title>
<path fill="none" stroke="#375588" stroke-width="2" d="M20,-27C20,-27 152,-27 152,-27 158,-27 164,-33 164,-39 164,-39 164,-941 164,-941 164,-947 158,-953 152,-953 152,-953 20,-953 20,-953 14,-953 8,-947 8,-941 8,-941 8,-39 8,-39 8,-33 14,-27 20,-27"/>
</g>
<!-- Name : MobilenetV1/MobilenetV1/Conv2d_0/Relu6/Mul/Bias/InCast
Info :  -->
<g id="node1" class="node">
<title>Name : MobilenetV1/MobilenetV1/Conv2d_0/Relu6/Mul/Bias/InCast
Info : </title>
<path fill="#375588" stroke="#000000" d="M106.6667,-945C106.6667,-945 65.3333,-945 65.3333,-945 62.1667,-945 59,-941.8333 59,-938.6667 59,-938.6667 59,-932.3333 59,-932.3333 59,-929.1667 62.1667,-926 65.3333,-926 65.3333,-926 106.6667,-926 106.6667,-926 109.8333,-926 113,-929.1667 113,-932.3333 113,-932.3333 113,-938.6667 113,-938.6667 113,-941.8333 109.8333,-945 106.6667,-945"/>
<text text-anchor="middle" x="86" y="-933" font-family="Times,serif" font-size="10.00" fill="#ffffff">0:CAST</text>
</g>
<!-- Name : MobilenetV1/MobilenetV1/Conv2d_0/Relu6/Mul/Bias
Info :  -->
<g id="node2" class="node">
<title>Name : MobilenetV1/MobilenetV1/Conv2d_0/Relu6/Mul/Bias
Info : </title>
<path fill="#375588" stroke="#000000" d="M106.6667,-918C106.6667,-918 65.3333,-918 65.3333,-918 62.1667,-918 59,-914.8333 59,-911.6667 59,-911.6667 59,-905.3333 59,-905.3333 59,-902.1667 62.1667,-899 65.3333,-899 65.3333,-899 106.6667,-899 106.6667,-899 109.8333,-899 113,-902.1667 113,-905.3333 113,-905.3333 113,-911.6667 113,-911.6667 113,-914.8333 109.8333,-918 106.6667,-918"/>
<text text-anchor="middle" x="86" y="-906" font-family="Times,serif" font-size="10.00" fill="#ffffff">1:ADD</text>
</g>
<!-- Name : MobilenetV1/MobilenetV1/Conv2d_0/Relu6/Mul/Bias/InCast
Info : &#45;&gt;Name : MobilenetV1/MobilenetV1/Conv2d_0/Relu6/Mul/Bias
Info :  -->
<g id="edge1" class="edge">
<title>Name : MobilenetV1/MobilenetV1/Conv2d_0/Relu6/Mul/Bias/InCast
Info : &#45;&gt;Name : MobilenetV1/MobilenetV1/Conv2d_0/Relu6/Mul/Bias
Info : </title>
<path fill="none" stroke="#000000" stroke-width=".7" d="M86,-925.7524C86,-924.9971 86,-924.2248 86,-923.4461"/>
<polygon fill="#000000" stroke="#000000" stroke-width=".7" points="86,-918.324 88.2501,-923.324 86,-920.824 86.0001,-923.324 86.0001,-923.324 86.0001,-923.324 86,-920.824 83.7501,-923.324 86,-918.324 86,-918.324"/>
</g>
<!-- Name : MobilenetV1/MobilenetV1/Conv2d_0/Relu6/Mul
Info :  -->
<g id="node3" class="node">
<title>Name : MobilenetV1/MobilenetV1/Conv2d_0/Relu6/Mul
Info : </title>
<path fill="#375588" stroke="#000000" d="M106.6667,-891C106.6667,-891 65.3333,-891 65.3333,-891 62.1667,-891 59,-887.8333 59,-884.6667 59,-884.6667 59,-878.3333 59,-878.3333 59,-875.1667 62.1667,-872 65.3333,-872 65.3333,-872 106.6667,-872 106.6667,-872 109.8333,-872 113,-875.1667 113,-878.3333 113,-878.3333 113,-884.6667 113,-884.6667 113,-887.8333 109.8333,-891 106.6667,-891"/>
<text text-anchor="middle" x="86" y="-879" font-family="Times,serif" font-size="10.00" fill="#ffffff">2:MUL</text>
</g>
<!-- Name : MobilenetV1/MobilenetV1/Conv2d_0/Relu6/Mul/Bias
Info : &#45;&gt;Name : MobilenetV1/MobilenetV1/Conv2d_0/Relu6/Mul
Info :  -->
<g id="edge2" class="edge">
<title>Name : MobilenetV1/MobilenetV1/Conv2d_0/Relu6/Mul/Bias
Info : &#45;&gt;Name : MobilenetV1/MobilenetV1/Conv2d_0/Relu6/Mul
Info : </title>
<path fill="none" stroke="#000000" stroke-width=".7" d="M86,-898.7524C86,-897.9971 86,-897.2248 86,-896.4461"/>
<polygon fill="#000000" stroke="#000000" stroke-width=".7" points="86,-891.324 88.2501,-896.324 86,-893.824 86.0001,-896.324 86.0001,-896.324 86.0001,-896.324 86,-893.824 83.7501,-896.324 86,-891.324 86,-891.324"/>
</g>
<!-- Name : MobilenetV1/MobilenetV1/Conv2d_0/Relu6
Info :  -->
<g id="node4" class="node">
<title>Name : MobilenetV1/MobilenetV1/Conv2d_0/Relu6
Info : </title>
<path fill="#375588" stroke="#000000" d="M115.6667,-864C115.6667,-864 56.3333,-864 56.3333,-864 53.1667,-864 50,-860.8333 50,-857.6667 50,-857.6667 50,-851.3333 50,-851.3333 50,-848.1667 53.1667,-845 56.3333,-845 56.3333,-845 115.6667,-845 115.6667,-845 118.8333,-845 122,-848.1667 122,-851.3333 122,-851.3333 122,-857.6667 122,-857.6667 122,-860.8333 118.8333,-864 115.6667,-864"/>
<text text-anchor="middle" x="86" y="-852" font-family="Times,serif" font-size="10.00" fill="#ffffff">3:CONV_2D</text>
</g>
<!-- Name : MobilenetV1/MobilenetV1/Conv2d_0/Relu6/Mul
Info : &#45;&gt;Name : MobilenetV1/MobilenetV1/Conv2d_0/Relu6
Info :  -->
<g id="edge3" class="edge">
<title>Name : MobilenetV1/MobilenetV1/Conv2d_0/Relu6/Mul
Info : &#45;&gt;Name : MobilenetV1/MobilenetV1/Conv2d_0/Relu6
Info : </title>
<path fill="none" stroke="#000000" stroke-width=".7" d="M86,-871.7524C86,-870.9971 86,-870.2248 86,-869.4461"/>
<polygon fill="#000000" stroke="#000000" stroke-width=".7" points="86,-864.324 88.2501,-869.324 86,-866.824 86.0001,-869.324 86.0001,-869.324 86.0001,-869.324 86,-866.824 83.7501,-869.324 86,-864.324 86,-864.324"/>
</g>
<!-- Name : MobilenetV1/MobilenetV1/Conv2d_1_depthwise/Relu6
Info :  -->
<g id="node5" class="node">
<title>Name : MobilenetV1/MobilenetV1/Conv2d_1_depthwise/Relu6
Info : </title>
<path fill="#375588" stroke="#000000" d="M146.6667,-837C146.6667,-837 25.3333,-837 25.3333,-837 22.1667,-837 19,-833.8333 19,-830.6667 19,-830.6667 19,-824.3333 19,-824.3333 19,-821.1667 22.1667,-818 25.3333,-818 25.3333,-818 146.6667,-818 146.6667,-818 149.8333,-818 153,-821.1667 153,-824.3333 153,-824.3333 153,-830.6667 153,-830.6667 153,-833.8333 149.8333,-837 146.6667,-837"/>
<text text-anchor="middle" x="86" y="-825" font-family="Times,serif" font-size="10.00" fill="#ffffff">4:DEPTHWISE_CONV_2D</text>
</g>
<!-- Name : MobilenetV1/MobilenetV1/Conv2d_0/Relu6
Info : &#45;&gt;Name : MobilenetV1/MobilenetV1/Conv2d_1_depthwise/Relu6
Info :  -->
<g id="edge4" class="edge">
<title>Name : MobilenetV1/MobilenetV1/Conv2d_0/Relu6
Info : &#45;&gt;Name : MobilenetV1/MobilenetV1/Conv2d_1_depthwise/Relu6
Info : </title>
<path fill="none" stroke="#000000" stroke-width=".7" d="M86,-844.7524C86,-843.9971 86,-843.2248 86,-842.4461"/>
<polygon fill="#000000" stroke="#000000" stroke-width=".7" points="86,-837.324 88.2501,-842.324 86,-839.824 86.0001,-842.324 86.0001,-842.324 86.0001,-842.324 86,-839.824 83.7501,-842.324 86,-837.324 86,-837.324"/>
</g>
<!-- Name : MobilenetV1/MobilenetV1/Conv2d_1_pointwise/Relu6
Info :  -->
<g id="node6" class="node">
<title>Name : MobilenetV1/MobilenetV1/Conv2d_1_pointwise/Relu6
Info : </title>
<path fill="#375588" stroke="#000000" d="M115.6667,-810C115.6667,-810 56.3333,-810 56.3333,-810 53.1667,-810 50,-806.8333 50,-803.6667 50,-803.6667 50,-797.3333 50,-797.3333 50,-794.1667 53.1667,-791 56.3333,-791 56.3333,-791 115.6667,-791 115.6667,-791 118.8333,-791 122,-794.1667 122,-797.3333 122,-797.3333 122,-803.6667 122,-803.6667 122,-806.8333 118.8333,-810 115.6667,-810"/>
<text text-anchor="middle" x="86" y="-798" font-family="Times,serif" font-size="10.00" fill="#ffffff">5:CONV_2D</text>
</g>
<!-- Name : MobilenetV1/MobilenetV1/Conv2d_1_depthwise/Relu6
Info : &#45;&gt;Name : MobilenetV1/MobilenetV1/Conv2d_1_pointwise/Relu6
Info :  -->
<g id="edge5" class="edge">
<title>Name : MobilenetV1/MobilenetV1/Conv2d_1_depthwise/Relu6
Info : &#45;&gt;Name : MobilenetV1/MobilenetV1/Conv2d_1_pointwise/Relu6
Info : </title>
<path fill="none" stroke="#000000" stroke-width=".7" d="M86,-817.7524C86,-816.9971 86,-816.2248 86,-815.4461"/>
<polygon fill="#000000" stroke="#000000" stroke-width=".7" points="86,-810.324 88.2501,-815.324 86,-812.824 86.0001,-815.324 86.0001,-815.324 86.0001,-815.324 86,-812.824 83.7501,-815.324 86,-810.324 86,-810.324"/>
</g>
<!-- Name : MobilenetV1/MobilenetV1/Conv2d_2_depthwise/Relu6
Info :  -->
<g id="node7" class="node">
<title>Name : MobilenetV1/MobilenetV1/Conv2d_2_depthwise/Relu6
Info : </title>
<path fill="#375588" stroke="#000000" d="M146.6667,-783C146.6667,-783 25.3333,-783 25.3333,-783 22.1667,-783 19,-779.8333 19,-776.6667 19,-776.6667 19,-770.3333 19,-770.3333 19,-767.1667 22.1667,-764 25.3333,-764 25.3333,-764 146.6667,-764 146.6667,-764 149.8333,-764 153,-767.1667 153,-770.3333 153,-770.3333 153,-776.6667 153,-776.6667 153,-779.8333 149.8333,-783 146.6667,-783"/>
<text text-anchor="middle" x="86" y="-771" font-family="Times,serif" font-size="10.00" fill="#ffffff">6:DEPTHWISE_CONV_2D</text>
</g>
<!-- Name : MobilenetV1/MobilenetV1/Conv2d_1_pointwise/Relu6
Info : &#45;&gt;Name : MobilenetV1/MobilenetV1/Conv2d_2_depthwise/Relu6
Info :  -->
<g id="edge6" class="edge">
<title>Name : MobilenetV1/MobilenetV1/Conv2d_1_pointwise/Relu6
Info : &#45;&gt;Name : MobilenetV1/MobilenetV1/Conv2d_2_depthwise/Relu6
Info : </title>
<path fill="none" stroke="#000000" stroke-width=".7" d="M86,-790.7524C86,-789.9971 86,-789.2248 86,-788.4461"/>
<polygon fill="#000000" stroke="#000000" stroke-width=".7" points="86,-783.324 88.2501,-788.324 86,-785.824 86.0001,-788.324 86.0001,-788.324 86.0001,-788.324 86,-785.824 83.7501,-788.324 86,-783.324 86,-783.324"/>
</g>
<!-- Name : MobilenetV1/MobilenetV1/Conv2d_2_pointwise/Relu6
Info :  -->
<g id="node8" class="node">
<title>Name : MobilenetV1/MobilenetV1/Conv2d_2_pointwise/Relu6
Info : </title>
<path fill="#375588" stroke="#000000" d="M115.6667,-756C115.6667,-756 56.3333,-756 56.3333,-756 53.1667,-756 50,-752.8333 50,-749.6667 50,-749.6667 50,-743.3333 50,-743.3333 50,-740.1667 53.1667,-737 56.3333,-737 56.3333,-737 115.6667,-737 115.6667,-737 118.8333,-737 122,-740.1667 122,-743.3333 122,-743.3333 122,-749.6667 122,-749.6667 122,-752.8333 118.8333,-756 115.6667,-756"/>
<text text-anchor="middle" x="86" y="-744" font-family="Times,serif" font-size="10.00" fill="#ffffff">7:CONV_2D</text>
</g>
<!-- Name : MobilenetV1/MobilenetV1/Conv2d_2_depthwise/Relu6
Info : &#45;&gt;Name : MobilenetV1/MobilenetV1/Conv2d_2_pointwise/Relu6
Info :  -->
<g id="edge7" class="edge">
<title>Name : MobilenetV1/MobilenetV1/Conv2d_2_depthwise/Relu6
Info : &#45;&gt;Name : MobilenetV1/MobilenetV1/Conv2d_2_pointwise/Relu6
Info : </title>
<path fill="none" stroke="#000000" stroke-width=".7" d="M86,-763.7524C86,-762.9971 86,-762.2248 86,-761.4461"/>
<polygon fill="#000000" stroke="#000000" stroke-width=".7" points="86,-756.324 88.2501,-761.324 86,-758.824 86.0001,-761.324 86.0001,-761.324 86.0001,-761.324 86,-758.824 83.7501,-761.324 86,-756.324 86,-756.324"/>
</g>
<!-- Name : MobilenetV1/MobilenetV1/Conv2d_3_depthwise/Relu6
Info :  -->
<g id="node9" class="node">
<title>Name : MobilenetV1/MobilenetV1/Conv2d_3_depthwise/Relu6
Info : </title>
<path fill="#375588" stroke="#000000" d="M146.6667,-729C146.6667,-729 25.3333,-729 25.3333,-729 22.1667,-729 19,-725.8333 19,-722.6667 19,-722.6667 19,-716.3333 19,-716.3333 19,-713.1667 22.1667,-710 25.3333,-710 25.3333,-710 146.6667,-710 146.6667,-710 149.8333,-710 153,-713.1667 153,-716.3333 153,-716.3333 153,-722.6667 153,-722.6667 153,-725.8333 149.8333,-729 146.6667,-729"/>
<text text-anchor="middle" x="86" y="-717" font-family="Times,serif" font-size="10.00" fill="#ffffff">8:DEPTHWISE_CONV_2D</text>
</g>
<!-- Name : MobilenetV1/MobilenetV1/Conv2d_2_pointwise/Relu6
Info : &#45;&gt;Name : MobilenetV1/MobilenetV1/Conv2d_3_depthwise/Relu6
Info :  -->
<g id="edge8" class="edge">
<title>Name : MobilenetV1/MobilenetV1/Conv2d_2_pointwise/Relu6
Info : &#45;&gt;Name : MobilenetV1/MobilenetV1/Conv2d_3_depthwise/Relu6
Info : </title>
<path fill="none" stroke="#000000" stroke-width=".7" d="M86,-736.7524C86,-735.9971 86,-735.2248 86,-734.4461"/>
<polygon fill="#000000" stroke="#000000" stroke-width=".7" points="86,-729.324 88.2501,-734.324 86,-731.824 86.0001,-734.324 86.0001,-734.324 86.0001,-734.324 86,-731.824 83.7501,-734.324 86,-729.324 86,-729.324"/>
</g>
<!-- Name : MobilenetV1/MobilenetV1/Conv2d_3_pointwise/Relu6
Info :  -->
<g id="node10" class="node">
<title>Name : MobilenetV1/MobilenetV1/Conv2d_3_pointwise/Relu6
Info : </title>
<path fill="#375588" stroke="#000000" d="M115.6667,-702C115.6667,-702 56.3333,-702 56.3333,-702 53.1667,-702 50,-698.8333 50,-695.6667 50,-695.6667 50,-689.3333 50,-689.3333 50,-686.1667 53.1667,-683 56.3333,-683 56.3333,-683 115.6667,-683 115.6667,-683 118.8333,-683 122,-686.1667 122,-689.3333 122,-689.3333 122,-695.6667 122,-695.6667 122,-698.8333 118.8333,-702 115.6667,-702"/>
<text text-anchor="middle" x="86" y="-690" font-family="Times,serif" font-size="10.00" fill="#ffffff">9:CONV_2D</text>
</g>
<!-- Name : MobilenetV1/MobilenetV1/Conv2d_3_depthwise/Relu6
Info : &#45;&gt;Name : MobilenetV1/MobilenetV1/Conv2d_3_pointwise/Relu6
Info :  -->
<g id="edge9" class="edge">
<title>Name : MobilenetV1/MobilenetV1/Conv2d_3_depthwise/Relu6
Info : &#45;&gt;Name : MobilenetV1/MobilenetV1/Conv2d_3_pointwise/Relu6
Info : </title>
<path fill="none" stroke="#000000" stroke-width=".7" d="M86,-709.7524C86,-708.9971 86,-708.2248 86,-707.4461"/>
<polygon fill="#000000" stroke="#000000" stroke-width=".7" points="86,-702.324 88.2501,-707.324 86,-704.824 86.0001,-707.324 86.0001,-707.324 86.0001,-707.324 86,-704.824 83.7501,-707.324 86,-702.324 86,-702.324"/>
</g>
<!-- Name : MobilenetV1/MobilenetV1/Conv2d_4_depthwise/Relu6
Info :  -->
<g id="node11" class="node">
<title>Name : MobilenetV1/MobilenetV1/Conv2d_4_depthwise/Relu6
Info : </title>
<path fill="#375588" stroke="#000000" d="M149.1667,-675C149.1667,-675 22.8333,-675 22.8333,-675 19.6667,-675 16.5,-671.8333 16.5,-668.6667 16.5,-668.6667 16.5,-662.3333 16.5,-662.3333 16.5,-659.1667 19.6667,-656 22.8333,-656 22.8333,-656 149.1667,-656 149.1667,-656 152.3333,-656 155.5,-659.1667 155.5,-662.3333 155.5,-662.3333 155.5,-668.6667 155.5,-668.6667 155.5,-671.8333 152.3333,-675 149.1667,-675"/>
<text text-anchor="middle" x="86" y="-663" font-family="Times,serif" font-size="10.00" fill="#ffffff">10:DEPTHWISE_CONV_2D</text>
</g>
<!-- Name : MobilenetV1/MobilenetV1/Conv2d_3_pointwise/Relu6
Info : &#45;&gt;Name : MobilenetV1/MobilenetV1/Conv2d_4_depthwise/Relu6
Info :  -->
<g id="edge10" class="edge">
<title>Name : MobilenetV1/MobilenetV1/Conv2d_3_pointwise/Relu6
Info : &#45;&gt;Name : MobilenetV1/MobilenetV1/Conv2d_4_depthwise/Relu6
Info : </title>
<path fill="none" stroke="#000000" stroke-width=".7" d="M86,-682.7524C86,-681.9971 86,-681.2248 86,-680.4461"/>
<polygon fill="#000000" stroke="#000000" stroke-width=".7" points="86,-675.324 88.2501,-680.324 86,-677.824 86.0001,-680.324 86.0001,-680.324 86.0001,-680.324 86,-677.824 83.7501,-680.324 86,-675.324 86,-675.324"/>
</g>
<!-- Name : MobilenetV1/MobilenetV1/Conv2d_4_pointwise/Relu6
Info :  -->
<g id="node12" class="node">
<title>Name : MobilenetV1/MobilenetV1/Conv2d_4_pointwise/Relu6
Info : </title>
<path fill="#375588" stroke="#000000" d="M118.1667,-648C118.1667,-648 53.8333,-648 53.8333,-648 50.6667,-648 47.5,-644.8333 47.5,-641.6667 47.5,-641.6667 47.5,-635.3333 47.5,-635.3333 47.5,-632.1667 50.6667,-629 53.8333,-629 53.8333,-629 118.1667,-629 118.1667,-629 121.3333,-629 124.5,-632.1667 124.5,-635.3333 124.5,-635.3333 124.5,-641.6667 124.5,-641.6667 124.5,-644.8333 121.3333,-648 118.1667,-648"/>
<text text-anchor="middle" x="86" y="-636" font-family="Times,serif" font-size="10.00" fill="#ffffff">11:CONV_2D</text>
</g>
<!-- Name : MobilenetV1/MobilenetV1/Conv2d_4_depthwise/Relu6
Info : &#45;&gt;Name : MobilenetV1/MobilenetV1/Conv2d_4_pointwise/Relu6
Info :  -->
<g id="edge11" class="edge">
<title>Name : MobilenetV1/MobilenetV1/Conv2d_4_depthwise/Relu6
Info : &#45;&gt;Name : MobilenetV1/MobilenetV1/Conv2d_4_pointwise/Relu6
Info : </title>
<path fill="none" stroke="#000000" stroke-width=".7" d="M86,-655.7524C86,-654.9971 86,-654.2248 86,-653.4461"/>
<polygon fill="#000000" stroke="#000000" stroke-width=".7" points="86,-648.324 88.2501,-653.324 86,-650.824 86.0001,-653.324 86.0001,-653.324 86.0001,-653.324 86,-650.824 83.7501,-653.324 86,-648.324 86,-648.324"/>
</g>
<!-- Name : MobilenetV1/MobilenetV1/Conv2d_5_depthwise/Relu6
Info :  -->
<g id="node13" class="node">
<title>Name : MobilenetV1/MobilenetV1/Conv2d_5_depthwise/Relu6
Info : </title>
<path fill="#375588" stroke="#000000" d="M149.1667,-621C149.1667,-621 22.8333,-621 22.8333,-621 19.6667,-621 16.5,-617.8333 16.5,-614.6667 16.5,-614.6667 16.5,-608.3333 16.5,-608.3333 16.5,-605.1667 19.6667,-602 22.8333,-602 22.8333,-602 149.1667,-602 149.1667,-602 152.3333,-602 155.5,-605.1667 155.5,-608.3333 155.5,-608.3333 155.5,-614.6667 155.5,-614.6667 155.5,-617.8333 152.3333,-621 149.1667,-621"/>
<text text-anchor="middle" x="86" y="-609" font-family="Times,serif" font-size="10.00" fill="#ffffff">12:DEPTHWISE_CONV_2D</text>
</g>
<!-- Name : MobilenetV1/MobilenetV1/Conv2d_4_pointwise/Relu6
Info : &#45;&gt;Name : MobilenetV1/MobilenetV1/Conv2d_5_depthwise/Relu6
Info :  -->
<g id="edge12" class="edge">
<title>Name : MobilenetV1/MobilenetV1/Conv2d_4_pointwise/Relu6
Info : &#45;&gt;Name : MobilenetV1/MobilenetV1/Conv2d_5_depthwise/Relu6
Info : </title>
<path fill="none" stroke="#000000" stroke-width=".7" d="M86,-628.7524C86,-627.9971 86,-627.2248 86,-626.4461"/>
<polygon fill="#000000" stroke="#000000" stroke-width=".7" points="86,-621.324 88.2501,-626.324 86,-623.824 86.0001,-626.324 86.0001,-626.324 86.0001,-626.324 86,-623.824 83.7501,-626.324 86,-621.324 86,-621.324"/>
</g>
<!-- Name : MobilenetV1/MobilenetV1/Conv2d_5_pointwise/Relu6
Info :  -->
<g id="node14" class="node">
<title>Name : MobilenetV1/MobilenetV1/Conv2d_5_pointwise/Relu6
Info : </title>
<path fill="#375588" stroke="#000000" d="M118.1667,-594C118.1667,-594 53.8333,-594 53.8333,-594 50.6667,-594 47.5,-590.8333 47.5,-587.6667 47.5,-587.6667 47.5,-581.3333 47.5,-581.3333 47.5,-578.1667 50.6667,-575 53.8333,-575 53.8333,-575 118.1667,-575 118.1667,-575 121.3333,-575 124.5,-578.1667 124.5,-581.3333 124.5,-581.3333 124.5,-587.6667 124.5,-587.6667 124.5,-590.8333 121.3333,-594 118.1667,-594"/>
<text text-anchor="middle" x="86" y="-582" font-family="Times,serif" font-size="10.00" fill="#ffffff">13:CONV_2D</text>
</g>
<!-- Name : MobilenetV1/MobilenetV1/Conv2d_5_depthwise/Relu6
Info : &#45;&gt;Name : MobilenetV1/MobilenetV1/Conv2d_5_pointwise/Relu6
Info :  -->
<g id="edge13" class="edge">
<title>Name : MobilenetV1/MobilenetV1/Conv2d_5_depthwise/Relu6
Info : &#45;&gt;Name : MobilenetV1/MobilenetV1/Conv2d_5_pointwise/Relu6
Info : </title>
<path fill="none" stroke="#000000" stroke-width=".7" d="M86,-601.7524C86,-600.9971 86,-600.2248 86,-599.4461"/>
<polygon fill="#000000" stroke="#000000" stroke-width=".7" points="86,-594.324 88.2501,-599.324 86,-596.824 86.0001,-599.324 86.0001,-599.324 86.0001,-599.324 86,-596.824 83.7501,-599.324 86,-594.324 86,-594.324"/>
</g>
<!-- Name : MobilenetV1/MobilenetV1/Conv2d_6_depthwise/Relu6
Info :  -->
<g id="node15" class="node">
<title>Name : MobilenetV1/MobilenetV1/Conv2d_6_depthwise/Relu6
Info : </title>
<path fill="#375588" stroke="#000000" d="M149.1667,-567C149.1667,-567 22.8333,-567 22.8333,-567 19.6667,-567 16.5,-563.8333 16.5,-560.6667 16.5,-560.6667 16.5,-554.3333 16.5,-554.3333 16.5,-551.1667 19.6667,-548 22.8333,-548 22.8333,-548 149.1667,-548 149.1667,-548 152.3333,-548 155.5,-551.1667 155.5,-554.3333 155.5,-554.3333 155.5,-560.6667 155.5,-560.6667 155.5,-563.8333 152.3333,-567 149.1667,-567"/>
<text text-anchor="middle" x="86" y="-555" font-family="Times,serif" font-size="10.00" fill="#ffffff">14:DEPTHWISE_CONV_2D</text>
</g>
<!-- Name : MobilenetV1/MobilenetV1/Conv2d_5_pointwise/Relu6
Info : &#45;&gt;Name : MobilenetV1/MobilenetV1/Conv2d_6_depthwise/Relu6
Info :  -->
<g id="edge14" class="edge">
<title>Name : MobilenetV1/MobilenetV1/Conv2d_5_pointwise/Relu6
Info : &#45;&gt;Name : MobilenetV1/MobilenetV1/Conv2d_6_depthwise/Relu6
Info : </title>
<path fill="none" stroke="#000000" stroke-width=".7" d="M86,-574.7524C86,-573.9971 86,-573.2248 86,-572.4461"/>
<polygon fill="#000000" stroke="#000000" stroke-width=".7" points="86,-567.324 88.2501,-572.324 86,-569.824 86.0001,-572.324 86.0001,-572.324 86.0001,-572.324 86,-569.824 83.7501,-572.324 86,-567.324 86,-567.324"/>
</g>
<!-- Name : MobilenetV1/MobilenetV1/Conv2d_6_pointwise/Relu6
Info :  -->
<g id="node16" class="node">
<title>Name : MobilenetV1/MobilenetV1/Conv2d_6_pointwise/Relu6
Info : </title>
<path fill="#375588" stroke="#000000" d="M118.1667,-540C118.1667,-540 53.8333,-540 53.8333,-540 50.6667,-540 47.5,-536.8333 47.5,-533.6667 47.5,-533.6667 47.5,-527.3333 47.5,-527.3333 47.5,-524.1667 50.6667,-521 53.8333,-521 53.8333,-521 118.1667,-521 118.1667,-521 121.3333,-521 124.5,-524.1667 124.5,-527.3333 124.5,-527.3333 124.5,-533.6667 124.5,-533.6667 124.5,-536.8333 121.3333,-540 118.1667,-540"/>
<text text-anchor="middle" x="86" y="-528" font-family="Times,serif" font-size="10.00" fill="#ffffff">15:CONV_2D</text>
</g>
<!-- Name : MobilenetV1/MobilenetV1/Conv2d_6_depthwise/Relu6
Info : &#45;&gt;Name : MobilenetV1/MobilenetV1/Conv2d_6_pointwise/Relu6
Info :  -->
<g id="edge15" class="edge">
<title>Name : MobilenetV1/MobilenetV1/Conv2d_6_depthwise/Relu6
Info : &#45;&gt;Name : MobilenetV1/MobilenetV1/Conv2d_6_pointwise/Relu6
Info : </title>
<path fill="none" stroke="#000000" stroke-width=".7" d="M86,-547.7524C86,-546.9971 86,-546.2248 86,-545.4461"/>
<polygon fill="#000000" stroke="#000000" stroke-width=".7" points="86,-540.324 88.2501,-545.324 86,-542.824 86.0001,-545.324 86.0001,-545.324 86.0001,-545.324 86,-542.824 83.7501,-545.324 86,-540.324 86,-540.324"/>
</g>
<!-- Name : MobilenetV1/MobilenetV1/Conv2d_7_depthwise/Relu6
Info :  -->
<g id="node17" class="node">
<title>Name : MobilenetV1/MobilenetV1/Conv2d_7_depthwise/Relu6
Info : </title>
<path fill="#375588" stroke="#000000" d="M149.1667,-513C149.1667,-513 22.8333,-513 22.8333,-513 19.6667,-513 16.5,-509.8333 16.5,-506.6667 16.5,-506.6667 16.5,-500.3333 16.5,-500.3333 16.5,-497.1667 19.6667,-494 22.8333,-494 22.8333,-494 149.1667,-494 149.1667,-494 152.3333,-494 155.5,-497.1667 155.5,-500.3333 155.5,-500.3333 155.5,-506.6667 155.5,-506.6667 155.5,-509.8333 152.3333,-513 149.1667,-513"/>
<text text-anchor="middle" x="86" y="-501" font-family="Times,serif" font-size="10.00" fill="#ffffff">16:DEPTHWISE_CONV_2D</text>
</g>
<!-- Name : MobilenetV1/MobilenetV1/Conv2d_6_pointwise/Relu6
Info : &#45;&gt;Name : MobilenetV1/MobilenetV1/Conv2d_7_depthwise/Relu6
Info :  -->
<g id="edge16" class="edge">
<title>Name : MobilenetV1/MobilenetV1/Conv2d_6_pointwise/Relu6
Info : &#45;&gt;Name : MobilenetV1/MobilenetV1/Conv2d_7_depthwise/Relu6
Info : </title>
<path fill="none" stroke="#000000" stroke-width=".7" d="M86,-520.7524C86,-519.9971 86,-519.2248 86,-518.4461"/>
<polygon fill="#000000" stroke="#000000" stroke-width=".7" points="86,-513.324 88.2501,-518.324 86,-515.824 86.0001,-518.324 86.0001,-518.324 86.0001,-518.324 86,-515.824 83.7501,-518.324 86,-513.324 86,-513.324"/>
</g>
<!-- Name : MobilenetV1/MobilenetV1/Conv2d_7_pointwise/Relu6
Info :  -->
<g id="node18" class="node">
<title>Name : MobilenetV1/MobilenetV1/Conv2d_7_pointwise/Relu6
Info : </title>
<path fill="#375588" stroke="#000000" d="M118.1667,-486C118.1667,-486 53.8333,-486 53.8333,-486 50.6667,-486 47.5,-482.8333 47.5,-479.6667 47.5,-479.6667 47.5,-473.3333 47.5,-473.3333 47.5,-470.1667 50.6667,-467 53.8333,-467 53.8333,-467 118.1667,-467 118.1667,-467 121.3333,-467 124.5,-470.1667 124.5,-473.3333 124.5,-473.3333 124.5,-479.6667 124.5,-479.6667 124.5,-482.8333 121.3333,-486 118.1667,-486"/>
<text text-anchor="middle" x="86" y="-474" font-family="Times,serif" font-size="10.00" fill="#ffffff">17:CONV_2D</text>
</g>
<!-- Name : MobilenetV1/MobilenetV1/Conv2d_7_depthwise/Relu6
Info : &#45;&gt;Name : MobilenetV1/MobilenetV1/Conv2d_7_pointwise/Relu6
Info :  -->
<g id="edge17" class="edge">
<title>Name : MobilenetV1/MobilenetV1/Conv2d_7_depthwise/Relu6
Info : &#45;&gt;Name : MobilenetV1/MobilenetV1/Conv2d_7_pointwise/Relu6
Info : </title>
<path fill="none" stroke="#000000" stroke-width=".7" d="M86,-493.7524C86,-492.9971 86,-492.2248 86,-491.4461"/>
<polygon fill="#000000" stroke="#000000" stroke-width=".7" points="86,-486.324 88.2501,-491.324 86,-488.824 86.0001,-491.324 86.0001,-491.324 86.0001,-491.324 86,-488.824 83.7501,-491.324 86,-486.324 86,-486.324"/>
</g>
<!-- Name : MobilenetV1/MobilenetV1/Conv2d_8_depthwise/Relu6
Info :  -->
<g id="node19" class="node">
<title>Name : MobilenetV1/MobilenetV1/Conv2d_8_depthwise/Relu6
Info : </title>
<path fill="#375588" stroke="#000000" d="M149.1667,-459C149.1667,-459 22.8333,-459 22.8333,-459 19.6667,-459 16.5,-455.8333 16.5,-452.6667 16.5,-452.6667 16.5,-446.3333 16.5,-446.3333 16.5,-443.1667 19.6667,-440 22.8333,-440 22.8333,-440 149.1667,-440 149.1667,-440 152.3333,-440 155.5,-443.1667 155.5,-446.3333 155.5,-446.3333 155.5,-452.6667 155.5,-452.6667 155.5,-455.8333 152.3333,-459 149.1667,-459"/>
<text text-anchor="middle" x="86" y="-447" font-family="Times,serif" font-size="10.00" fill="#ffffff">18:DEPTHWISE_CONV_2D</text>
</g>
<!-- Name : MobilenetV1/MobilenetV1/Conv2d_7_pointwise/Relu6
Info : &#45;&gt;Name : MobilenetV1/MobilenetV1/Conv2d_8_depthwise/Relu6
Info :  -->
<g id="edge18" class="edge">
<title>Name : MobilenetV1/MobilenetV1/Conv2d_7_pointwise/Relu6
Info : &#45;&gt;Name : MobilenetV1/MobilenetV1/Conv2d_8_depthwise/Relu6
Info : </title>
<path fill="none" stroke="#000000" stroke-width=".7" d="M86,-466.7524C86,-465.9971 86,-465.2248 86,-464.4461"/>
<polygon fill="#000000" stroke="#000000" stroke-width=".7" points="86,-459.324 88.2501,-464.324 86,-461.824 86.0001,-464.324 86.0001,-464.324 86.0001,-464.324 86,-461.824 83.7501,-464.324 86,-459.324 86,-459.324"/>
</g>
<!-- Name : MobilenetV1/MobilenetV1/Conv2d_8_pointwise/Relu6
Info :  -->
<g id="node20" class="node">
<title>Name : MobilenetV1/MobilenetV1/Conv2d_8_pointwise/Relu6
Info : </title>
<path fill="#375588" stroke="#000000" d="M118.1667,-432C118.1667,-432 53.8333,-432 53.8333,-432 50.6667,-432 47.5,-428.8333 47.5,-425.6667 47.5,-425.6667 47.5,-419.3333 47.5,-419.3333 47.5,-416.1667 50.6667,-413 53.8333,-413 53.8333,-413 118.1667,-413 118.1667,-413 121.3333,-413 124.5,-416.1667 124.5,-419.3333 124.5,-419.3333 124.5,-425.6667 124.5,-425.6667 124.5,-428.8333 121.3333,-432 118.1667,-432"/>
<text text-anchor="middle" x="86" y="-420" font-family="Times,serif" font-size="10.00" fill="#ffffff">19:CONV_2D</text>
</g>
<!-- Name : MobilenetV1/MobilenetV1/Conv2d_8_depthwise/Relu6
Info : &#45;&gt;Name : MobilenetV1/MobilenetV1/Conv2d_8_pointwise/Relu6
Info :  -->
<g id="edge19" class="edge">
<title>Name : MobilenetV1/MobilenetV1/Conv2d_8_depthwise/Relu6
Info : &#45;&gt;Name : MobilenetV1/MobilenetV1/Conv2d_8_pointwise/Relu6
Info : </title>
<path fill="none" stroke="#000000" stroke-width=".7" d="M86,-439.7524C86,-438.9971 86,-438.2248 86,-437.4461"/>
<polygon fill="#000000" stroke="#000000" stroke-width=".7" points="86,-432.324 88.2501,-437.324 86,-434.824 86.0001,-437.324 86.0001,-437.324 86.0001,-437.324 86,-434.824 83.7501,-437.324 86,-432.324 86,-432.324"/>
</g>
<!-- Name : MobilenetV1/MobilenetV1/Conv2d_9_depthwise/Relu6
Info :  -->
<g id="node21" class="node">
<title>Name : MobilenetV1/MobilenetV1/Conv2d_9_depthwise/Relu6
Info : </title>
<path fill="#375588" stroke="#000000" d="M149.1667,-405C149.1667,-405 22.8333,-405 22.8333,-405 19.6667,-405 16.5,-401.8333 16.5,-398.6667 16.5,-398.6667 16.5,-392.3333 16.5,-392.3333 16.5,-389.1667 19.6667,-386 22.8333,-386 22.8333,-386 149.1667,-386 149.1667,-386 152.3333,-386 155.5,-389.1667 155.5,-392.3333 155.5,-392.3333 155.5,-398.6667 155.5,-398.6667 155.5,-401.8333 152.3333,-405 149.1667,-405"/>
<text text-anchor="middle" x="86" y="-393" font-family="Times,serif" font-size="10.00" fill="#ffffff">20:DEPTHWISE_CONV_2D</text>
</g>
<!-- Name : MobilenetV1/MobilenetV1/Conv2d_8_pointwise/Relu6
Info : &#45;&gt;Name : MobilenetV1/MobilenetV1/Conv2d_9_depthwise/Relu6
Info :  -->
<g id="edge20" class="edge">
<title>Name : MobilenetV1/MobilenetV1/Conv2d_8_pointwise/Relu6
Info : &#45;&gt;Name : MobilenetV1/MobilenetV1/Conv2d_9_depthwise/Relu6
Info : </title>
<path fill="none" stroke="#000000" stroke-width=".7" d="M86,-412.7524C86,-411.9971 86,-411.2248 86,-410.4461"/>
<polygon fill="#000000" stroke="#000000" stroke-width=".7" points="86,-405.324 88.2501,-410.324 86,-407.824 86.0001,-410.324 86.0001,-410.324 86.0001,-410.324 86,-407.824 83.7501,-410.324 86,-405.324 86,-405.324"/>
</g>
<!-- Name : MobilenetV1/MobilenetV1/Conv2d_9_pointwise/Relu6
Info :  -->
<g id="node22" class="node">
<title>Name : MobilenetV1/MobilenetV1/Conv2d_9_pointwise/Relu6
Info : </title>
<path fill="#375588" stroke="#000000" d="M118.1667,-378C118.1667,-378 53.8333,-378 53.8333,-378 50.6667,-378 47.5,-374.8333 47.5,-371.6667 47.5,-371.6667 47.5,-365.3333 47.5,-365.3333 47.5,-362.1667 50.6667,-359 53.8333,-359 53.8333,-359 118.1667,-359 118.1667,-359 121.3333,-359 124.5,-362.1667 124.5,-365.3333 124.5,-365.3333 124.5,-371.6667 124.5,-371.6667 124.5,-374.8333 121.3333,-378 118.1667,-378"/>
<text text-anchor="middle" x="86" y="-366" font-family="Times,serif" font-size="10.00" fill="#ffffff">21:CONV_2D</text>
</g>
<!-- Name : MobilenetV1/MobilenetV1/Conv2d_9_depthwise/Relu6
Info : &#45;&gt;Name : MobilenetV1/MobilenetV1/Conv2d_9_pointwise/Relu6
Info :  -->
<g id="edge21" class="edge">
<title>Name : MobilenetV1/MobilenetV1/Conv2d_9_depthwise/Relu6
Info : &#45;&gt;Name : MobilenetV1/MobilenetV1/Conv2d_9_pointwise/Relu6
Info : </title>
<path fill="none" stroke="#000000" stroke-width=".7" d="M86,-385.7524C86,-384.9971 86,-384.2248 86,-383.4461"/>
<polygon fill="#000000" stroke="#000000" stroke-width=".7" points="86,-378.324 88.2501,-383.324 86,-380.824 86.0001,-383.324 86.0001,-383.324 86.0001,-383.324 86,-380.824 83.7501,-383.324 86,-378.324 86,-378.324"/>
</g>
<!-- Name : MobilenetV1/MobilenetV1/Conv2d_10_depthwise/Relu6
Info :  -->
<g id="node23" class="node">
<title>Name : MobilenetV1/MobilenetV1/Conv2d_10_depthwise/Relu6
Info : </title>
<path fill="#375588" stroke="#000000" d="M149.1667,-351C149.1667,-351 22.8333,-351 22.8333,-351 19.6667,-351 16.5,-347.8333 16.5,-344.6667 16.5,-344.6667 16.5,-338.3333 16.5,-338.3333 16.5,-335.1667 19.6667,-332 22.8333,-332 22.8333,-332 149.1667,-332 149.1667,-332 152.3333,-332 155.5,-335.1667 155.5,-338.3333 155.5,-338.3333 155.5,-344.6667 155.5,-344.6667 155.5,-347.8333 152.3333,-351 149.1667,-351"/>
<text text-anchor="middle" x="86" y="-339" font-family="Times,serif" font-size="10.00" fill="#ffffff">22:DEPTHWISE_CONV_2D</text>
</g>
<!-- Name : MobilenetV1/MobilenetV1/Conv2d_9_pointwise/Relu6
Info : &#45;&gt;Name : MobilenetV1/MobilenetV1/Conv2d_10_depthwise/Relu6
Info :  -->
<g id="edge22" class="edge">
<title>Name : MobilenetV1/MobilenetV1/Conv2d_9_pointwise/Relu6
Info : &#45;&gt;Name : MobilenetV1/MobilenetV1/Conv2d_10_depthwise/Relu6
Info : </title>
<path fill="none" stroke="#000000" stroke-width=".7" d="M86,-358.7524C86,-357.9971 86,-357.2248 86,-356.4461"/>
<polygon fill="#000000" stroke="#000000" stroke-width=".7" points="86,-351.324 88.2501,-356.324 86,-353.824 86.0001,-356.324 86.0001,-356.324 86.0001,-356.324 86,-353.824 83.7501,-356.324 86,-351.324 86,-351.324"/>
</g>
<!-- Name : MobilenetV1/MobilenetV1/Conv2d_10_pointwise/Relu6
Info :  -->
<g id="node24" class="node">
<title>Name : MobilenetV1/MobilenetV1/Conv2d_10_pointwise/Relu6
Info : </title>
<path fill="#375588" stroke="#000000" d="M118.1667,-324C118.1667,-324 53.8333,-324 53.8333,-324 50.6667,-324 47.5,-320.8333 47.5,-317.6667 47.5,-317.6667 47.5,-311.3333 47.5,-311.3333 47.5,-308.1667 50.6667,-305 53.8333,-305 53.8333,-305 118.1667,-305 118.1667,-305 121.3333,-305 124.5,-308.1667 124.5,-311.3333 124.5,-311.3333 124.5,-317.6667 124.5,-317.6667 124.5,-320.8333 121.3333,-324 118.1667,-324"/>
<text text-anchor="middle" x="86" y="-312" font-family="Times,serif" font-size="10.00" fill="#ffffff">23:CONV_2D</text>
</g>
<!-- Name : MobilenetV1/MobilenetV1/Conv2d_10_depthwise/Relu6
Info : &#45;&gt;Name : MobilenetV1/MobilenetV1/Conv2d_10_pointwise/Relu6
Info :  -->
<g id="edge23" class="edge">
<title>Name : MobilenetV1/MobilenetV1/Conv2d_10_depthwise/Relu6
Info : &#45;&gt;Name : MobilenetV1/MobilenetV1/Conv2d_10_pointwise/Relu6
Info : </title>
<path fill="none" stroke="#000000" stroke-width=".7" d="M86,-331.7524C86,-330.9971 86,-330.2248 86,-329.4461"/>
<polygon fill="#000000" stroke="#000000" stroke-width=".7" points="86,-324.324 88.2501,-329.324 86,-326.824 86.0001,-329.324 86.0001,-329.324 86.0001,-329.324 86,-326.824 83.7501,-329.324 86,-324.324 86,-324.324"/>
</g>
<!-- Name : MobilenetV1/MobilenetV1/Conv2d_11_depthwise/Relu6
Info :  -->
<g id="node25" class="node">
<title>Name : MobilenetV1/MobilenetV1/Conv2d_11_depthwise/Relu6
Info : </title>
<path fill="#375588" stroke="#000000" d="M149.1667,-297C149.1667,-297 22.8333,-297 22.8333,-297 19.6667,-297 16.5,-293.8333 16.5,-290.6667 16.5,-290.6667 16.5,-284.3333 16.5,-284.3333 16.5,-281.1667 19.6667,-278 22.8333,-278 22.8333,-278 149.1667,-278 149.1667,-278 152.3333,-278 155.5,-281.1667 155.5,-284.3333 155.5,-284.3333 155.5,-290.6667 155.5,-290.6667 155.5,-293.8333 152.3333,-297 149.1667,-297"/>
<text text-anchor="middle" x="86" y="-285" font-family="Times,serif" font-size="10.00" fill="#ffffff">24:DEPTHWISE_CONV_2D</text>
</g>
<!-- Name : MobilenetV1/MobilenetV1/Conv2d_10_pointwise/Relu6
Info : &#45;&gt;Name : MobilenetV1/MobilenetV1/Conv2d_11_depthwise/Relu6
Info :  -->
<g id="edge24" class="edge">
<title>Name : MobilenetV1/MobilenetV1/Conv2d_10_pointwise/Relu6
Info : &#45;&gt;Name : MobilenetV1/MobilenetV1/Conv2d_11_depthwise/Relu6
Info : </title>
<path fill="none" stroke="#000000" stroke-width=".7" d="M86,-304.7524C86,-303.9971 86,-303.2248 86,-302.4461"/>
<polygon fill="#000000" stroke="#000000" stroke-width=".7" points="86,-297.324 88.2501,-302.324 86,-299.824 86.0001,-302.324 86.0001,-302.324 86.0001,-302.324 86,-299.824 83.7501,-302.324 86,-297.324 86,-297.324"/>
</g>
<!-- Name : MobilenetV1/MobilenetV1/Conv2d_11_pointwise/Relu6
Info :  -->
<g id="node26" class="node">
<title>Name : MobilenetV1/MobilenetV1/Conv2d_11_pointwise/Relu6
Info : </title>
<path fill="#375588" stroke="#000000" d="M118.1667,-270C118.1667,-270 53.8333,-270 53.8333,-270 50.6667,-270 47.5,-266.8333 47.5,-263.6667 47.5,-263.6667 47.5,-257.3333 47.5,-257.3333 47.5,-254.1667 50.6667,-251 53.8333,-251 53.8333,-251 118.1667,-251 118.1667,-251 121.3333,-251 124.5,-254.1667 124.5,-257.3333 124.5,-257.3333 124.5,-263.6667 124.5,-263.6667 124.5,-266.8333 121.3333,-270 118.1667,-270"/>
<text text-anchor="middle" x="86" y="-258" font-family="Times,serif" font-size="10.00" fill="#ffffff">25:CONV_2D</text>
</g>
<!-- Name : MobilenetV1/MobilenetV1/Conv2d_11_depthwise/Relu6
Info : &#45;&gt;Name : MobilenetV1/MobilenetV1/Conv2d_11_pointwise/Relu6
Info :  -->
<g id="edge25" class="edge">
<title>Name : MobilenetV1/MobilenetV1/Conv2d_11_depthwise/Relu6
Info : &#45;&gt;Name : MobilenetV1/MobilenetV1/Conv2d_11_pointwise/Relu6
Info : </title>
<path fill="none" stroke="#000000" stroke-width=".7" d="M86,-277.7524C86,-276.9971 86,-276.2248 86,-275.4461"/>
<polygon fill="#000000" stroke="#000000" stroke-width=".7" points="86,-270.324 88.2501,-275.324 86,-272.824 86.0001,-275.324 86.0001,-275.324 86.0001,-275.324 86,-272.824 83.7501,-275.324 86,-270.324 86,-270.324"/>
</g>
<!-- Name : MobilenetV1/MobilenetV1/Conv2d_12_depthwise/Relu6
Info :  -->
<g id="node27" class="node">
<title>Name : MobilenetV1/MobilenetV1/Conv2d_12_depthwise/Relu6
Info : </title>
<path fill="#375588" stroke="#000000" d="M149.1667,-243C149.1667,-243 22.8333,-243 22.8333,-243 19.6667,-243 16.5,-239.8333 16.5,-236.6667 16.5,-236.6667 16.5,-230.3333 16.5,-230.3333 16.5,-227.1667 19.6667,-224 22.8333,-224 22.8333,-224 149.1667,-224 149.1667,-224 152.3333,-224 155.5,-227.1667 155.5,-230.3333 155.5,-230.3333 155.5,-236.6667 155.5,-236.6667 155.5,-239.8333 152.3333,-243 149.1667,-243"/>
<text text-anchor="middle" x="86" y="-231" font-family="Times,serif" font-size="10.00" fill="#ffffff">26:DEPTHWISE_CONV_2D</text>
</g>
<!-- Name : MobilenetV1/MobilenetV1/Conv2d_11_pointwise/Relu6
Info : &#45;&gt;Name : MobilenetV1/MobilenetV1/Conv2d_12_depthwise/Relu6
Info :  -->
<g id="edge26" class="edge">
<title>Name : MobilenetV1/MobilenetV1/Conv2d_11_pointwise/Relu6
Info : &#45;&gt;Name : MobilenetV1/MobilenetV1/Conv2d_12_depthwise/Relu6
Info : </title>
<path fill="none" stroke="#000000" stroke-width=".7" d="M86,-250.7524C86,-249.9971 86,-249.2248 86,-248.4461"/>
<polygon fill="#000000" stroke="#000000" stroke-width=".7" points="86,-243.324 88.2501,-248.324 86,-245.824 86.0001,-248.324 86.0001,-248.324 86.0001,-248.324 86,-245.824 83.7501,-248.324 86,-243.324 86,-243.324"/>
</g>
<!-- Name : MobilenetV1/MobilenetV1/Conv2d_12_pointwise/Relu6
Info :  -->
<g id="node28" class="node">
<title>Name : MobilenetV1/MobilenetV1/Conv2d_12_pointwise/Relu6
Info : </title>
<path fill="#375588" stroke="#000000" d="M118.1667,-216C118.1667,-216 53.8333,-216 53.8333,-216 50.6667,-216 47.5,-212.8333 47.5,-209.6667 47.5,-209.6667 47.5,-203.3333 47.5,-203.3333 47.5,-200.1667 50.6667,-197 53.8333,-197 53.8333,-197 118.1667,-197 118.1667,-197 121.3333,-197 124.5,-200.1667 124.5,-203.3333 124.5,-203.3333 124.5,-209.6667 124.5,-209.6667 124.5,-212.8333 121.3333,-216 118.1667,-216"/>
<text text-anchor="middle" x="86" y="-204" font-family="Times,serif" font-size="10.00" fill="#ffffff">27:CONV_2D</text>
</g>
<!-- Name : MobilenetV1/MobilenetV1/Conv2d_12_depthwise/Relu6
Info : &#45;&gt;Name : MobilenetV1/MobilenetV1/Conv2d_12_pointwise/Relu6
Info :  -->
<g id="edge27" class="edge">
<title>Name : MobilenetV1/MobilenetV1/Conv2d_12_depthwise/Relu6
Info : &#45;&gt;Name : MobilenetV1/MobilenetV1/Conv2d_12_pointwise/Relu6
Info : </title>
<path fill="none" stroke="#000000" stroke-width=".7" d="M86,-223.7524C86,-222.9971 86,-222.2248 86,-221.4461"/>
<polygon fill="#000000" stroke="#000000" stroke-width=".7" points="86,-216.324 88.2501,-221.324 86,-218.824 86.0001,-221.324 86.0001,-221.324 86.0001,-221.324 86,-218.824 83.7501,-221.324 86,-216.324 86,-216.324"/>
</g>
<!-- Name : MobilenetV1/MobilenetV1/Conv2d_13_depthwise/Relu6
Info :  -->
<g id="node29" class="node">
<title>Name : MobilenetV1/MobilenetV1/Conv2d_13_depthwise/Relu6
Info : </title>
<path fill="#375588" stroke="#000000" d="M149.1667,-189C149.1667,-189 22.8333,-189 22.8333,-189 19.6667,-189 16.5,-185.8333 16.5,-182.6667 16.5,-182.6667 16.5,-176.3333 16.5,-176.3333 16.5,-173.1667 19.6667,-170 22.8333,-170 22.8333,-170 149.1667,-170 149.1667,-170 152.3333,-170 155.5,-173.1667 155.5,-176.3333 155.5,-176.3333 155.5,-182.6667 155.5,-182.6667 155.5,-185.8333 152.3333,-189 149.1667,-189"/>
<text text-anchor="middle" x="86" y="-177" font-family="Times,serif" font-size="10.00" fill="#ffffff">28:DEPTHWISE_CONV_2D</text>
</g>
<!-- Name : MobilenetV1/MobilenetV1/Conv2d_12_pointwise/Relu6
Info : &#45;&gt;Name : MobilenetV1/MobilenetV1/Conv2d_13_depthwise/Relu6
Info :  -->
<g id="edge28" class="edge">
<title>Name : MobilenetV1/MobilenetV1/Conv2d_12_pointwise/Relu6
Info : &#45;&gt;Name : MobilenetV1/MobilenetV1/Conv2d_13_depthwise/Relu6
Info : </title>
<path fill="none" stroke="#000000" stroke-width=".7" d="M86,-196.7524C86,-195.9971 86,-195.2248 86,-194.4461"/>
<polygon fill="#000000" stroke="#000000" stroke-width=".7" points="86,-189.324 88.2501,-194.324 86,-191.824 86.0001,-194.324 86.0001,-194.324 86.0001,-194.324 86,-191.824 83.7501,-194.324 86,-189.324 86,-189.324"/>
</g>
<!-- Name : MobilenetV1/MobilenetV1/Conv2d_13_pointwise/Relu6
Info :  -->
<g id="node30" class="node">
<title>Name : MobilenetV1/MobilenetV1/Conv2d_13_pointwise/Relu6
Info : </title>
<path fill="#375588" stroke="#000000" d="M118.1667,-162C118.1667,-162 53.8333,-162 53.8333,-162 50.6667,-162 47.5,-158.8333 47.5,-155.6667 47.5,-155.6667 47.5,-149.3333 47.5,-149.3333 47.5,-146.1667 50.6667,-143 53.8333,-143 53.8333,-143 118.1667,-143 118.1667,-143 121.3333,-143 124.5,-146.1667 124.5,-149.3333 124.5,-149.3333 124.5,-155.6667 124.5,-155.6667 124.5,-158.8333 121.3333,-162 118.1667,-162"/>
<text text-anchor="middle" x="86" y="-150" font-family="Times,serif" font-size="10.00" fill="#ffffff">29:CONV_2D</text>
</g>
<!-- Name : MobilenetV1/MobilenetV1/Conv2d_13_depthwise/Relu6
Info : &#45;&gt;Name : MobilenetV1/MobilenetV1/Conv2d_13_pointwise/Relu6
Info :  -->
<g id="edge29" class="edge">
<title>Name : MobilenetV1/MobilenetV1/Conv2d_13_depthwise/Relu6
Info : &#45;&gt;Name : MobilenetV1/MobilenetV1/Conv2d_13_pointwise/Relu6
Info : </title>
<path fill="none" stroke="#000000" stroke-width=".7" d="M86,-169.7524C86,-168.9971 86,-168.2248 86,-167.4461"/>
<polygon fill="#000000" stroke="#000000" stroke-width=".7" points="86,-162.324 88.2501,-167.324 86,-164.824 86.0001,-167.324 86.0001,-167.324 86.0001,-167.324 86,-164.824 83.7501,-167.324 86,-162.324 86,-162.324"/>
</g>
<!-- Name : MobilenetV1/Logits/AvgPool_1a/AvgPool
Info :  -->
<g id="node31" class="node">
<title>Name : MobilenetV1/Logits/AvgPool_1a/AvgPool
Info : </title>
<path fill="#375588" stroke="#000000" d="M143.6667,-135C143.6667,-135 28.3333,-135 28.3333,-135 25.1667,-135 22,-131.8333 22,-128.6667 22,-128.6667 22,-122.3333 22,-122.3333 22,-119.1667 25.1667,-116 28.3333,-116 28.3333,-116 143.6667,-116 143.6667,-116 146.8333,-116 150,-119.1667 150,-122.3333 150,-122.3333 150,-128.6667 150,-128.6667 150,-131.8333 146.8333,-135 143.6667,-135"/>
<text text-anchor="middle" x="86" y="-123" font-family="Times,serif" font-size="10.00" fill="#ffffff">30:AVERAGE_POOL_2D</text>
</g>
<!-- Name : MobilenetV1/MobilenetV1/Conv2d_13_pointwise/Relu6
Info : &#45;&gt;Name : MobilenetV1/Logits/AvgPool_1a/AvgPool
Info :  -->
<g id="edge30" class="edge">
<title>Name : MobilenetV1/MobilenetV1/Conv2d_13_pointwise/Relu6
Info : &#45;&gt;Name : MobilenetV1/Logits/AvgPool_1a/AvgPool
Info : </title>
<path fill="none" stroke="#000000" stroke-width=".7" d="M86,-142.7524C86,-141.9971 86,-141.2248 86,-140.4461"/>
<polygon fill="#000000" stroke="#000000" stroke-width=".7" points="86,-135.324 88.2501,-140.324 86,-137.824 86.0001,-140.324 86.0001,-140.324 86.0001,-140.324 86,-137.824 83.7501,-140.324 86,-135.324 86,-135.324"/>
</g>
<!-- Name : MobilenetV1/Logits/Conv2d_1c_1x1/BiasAdd
Info :  -->
<g id="node32" class="node">
<title>Name : MobilenetV1/Logits/Conv2d_1c_1x1/BiasAdd
Info : </title>
<path fill="#375588" stroke="#000000" d="M118.1667,-108C118.1667,-108 53.8333,-108 53.8333,-108 50.6667,-108 47.5,-104.8333 47.5,-101.6667 47.5,-101.6667 47.5,-95.3333 47.5,-95.3333 47.5,-92.1667 50.6667,-89 53.8333,-89 53.8333,-89 118.1667,-89 118.1667,-89 121.3333,-89 124.5,-92.1667 124.5,-95.3333 124.5,-95.3333 124.5,-101.6667 124.5,-101.6667 124.5,-104.8333 121.3333,-108 118.1667,-108"/>
<text text-anchor="middle" x="86" y="-96" font-family="Times,serif" font-size="10.00" fill="#ffffff">31:CONV_2D</text>
</g>
<!-- Name : MobilenetV1/Logits/AvgPool_1a/AvgPool
Info : &#45;&gt;Name : MobilenetV1/Logits/Conv2d_1c_1x1/BiasAdd
Info :  -->
<g id="edge31" class="edge">
<title>Name : MobilenetV1/Logits/AvgPool_1a/AvgPool
Info : &#45;&gt;Name : MobilenetV1/Logits/Conv2d_1c_1x1/BiasAdd
Info : </title>
<path fill="none" stroke="#000000" stroke-width=".7" d="M86,-115.7524C86,-114.9971 86,-114.2248 86,-113.4461"/>
<polygon fill="#000000" stroke="#000000" stroke-width=".7" points="86,-108.324 88.2501,-113.324 86,-110.824 86.0001,-113.324 86.0001,-113.324 86.0001,-113.324 86,-110.824 83.7501,-113.324 86,-108.324 86,-108.324"/>
</g>
<!-- Name : MobilenetV1/Logits/SpatialSqueeze
Info :  -->
<g id="node33" class="node">
<title>Name : MobilenetV1/Logits/SpatialSqueeze
Info : </title>
<path fill="#375588" stroke="#000000" d="M116.6667,-81C116.6667,-81 55.3333,-81 55.3333,-81 52.1667,-81 49,-77.8333 49,-74.6667 49,-74.6667 49,-68.3333 49,-68.3333 49,-65.1667 52.1667,-62 55.3333,-62 55.3333,-62 116.6667,-62 116.6667,-62 119.8333,-62 123,-65.1667 123,-68.3333 123,-68.3333 123,-74.6667 123,-74.6667 123,-77.8333 119.8333,-81 116.6667,-81"/>
<text text-anchor="middle" x="86" y="-69" font-family="Times,serif" font-size="10.00" fill="#ffffff">32:RESHAPE</text>
</g>
<!-- Name : MobilenetV1/Logits/Conv2d_1c_1x1/BiasAdd
Info : &#45;&gt;Name : MobilenetV1/Logits/SpatialSqueeze
Info :  -->
<g id="edge32" class="edge">
<title>Name : MobilenetV1/Logits/Conv2d_1c_1x1/BiasAdd
Info : &#45;&gt;Name : MobilenetV1/Logits/SpatialSqueeze
Info : </title>
<path fill="none" stroke="#000000" stroke-width=".7" d="M86,-88.7524C86,-87.9971 86,-87.2248 86,-86.4461"/>
<polygon fill="#000000" stroke="#000000" stroke-width=".7" points="86,-81.324 88.2501,-86.324 86,-83.824 86.0001,-86.324 86.0001,-86.324 86.0001,-86.324 86,-83.824 83.7501,-86.324 86,-81.324 86,-81.324"/>
</g>
<!-- Name : MobilenetV1/Predictions/Reshape_1
Info :  -->
<g id="node34" class="node">
<title>Name : MobilenetV1/Predictions/Reshape_1
Info : </title>
<path fill="#375588" stroke="#000000" d="M118.6667,-54C118.6667,-54 53.3333,-54 53.3333,-54 50.1667,-54 47,-50.8333 47,-47.6667 47,-47.6667 47,-41.3333 47,-41.3333 47,-38.1667 50.1667,-35 53.3333,-35 53.3333,-35 118.6667,-35 118.6667,-35 121.8333,-35 125,-38.1667 125,-41.3333 125,-41.3333 125,-47.6667 125,-47.6667 125,-50.8333 121.8333,-54 118.6667,-54"/>
<text text-anchor="middle" x="86" y="-42" font-family="Times,serif" font-size="10.00" fill="#ffffff">33:SOFTMAX</text>
</g>
<!-- Name : MobilenetV1/Logits/SpatialSqueeze
Info : &#45;&gt;Name : MobilenetV1/Predictions/Reshape_1
Info :  -->
<g id="edge33" class="edge">
<title>Name : MobilenetV1/Logits/SpatialSqueeze
Info : &#45;&gt;Name : MobilenetV1/Predictions/Reshape_1
Info : </title>
<path fill="none" stroke="#000000" stroke-width=".7" d="M86,-61.7524C86,-60.9971 86,-60.2248 86,-59.4461"/>
<polygon fill="#000000" stroke="#000000" stroke-width=".7" points="86,-54.324 88.2501,-59.324 86,-56.824 86.0001,-59.324 86.0001,-59.324 86.0001,-59.324 86,-56.824 83.7501,-59.324 86,-54.324 86,-54.324"/>
</g>
<!-- Output : 33 -->
<g id="node36" class="node">
<title>Output : 33</title>
<path fill="#000000" stroke="#000000" d="M106.6667,-19C106.6667,-19 65.3333,-19 65.3333,-19 62.1667,-19 59,-15.8333 59,-12.6667 59,-12.6667 59,-6.3333 59,-6.3333 59,-3.1667 62.1667,0 65.3333,0 65.3333,0 106.6667,0 106.6667,0 109.8333,0 113,-3.1667 113,-6.3333 113,-6.3333 113,-12.6667 113,-12.6667 113,-15.8333 109.8333,-19 106.6667,-19"/>
<text text-anchor="middle" x="86" y="-7" font-family="Times,serif" font-size="10.00" fill="#ffffff">Output</text>
</g>
<!-- Name : MobilenetV1/Predictions/Reshape_1
Info : &#45;&gt;Output : 33 -->
<g id="edge35" class="edge">
<title>Name : MobilenetV1/Predictions/Reshape_1
Info : &#45;&gt;Output : 33</title>
<path fill="none" stroke="#000000" stroke-width=".7" d="M86,-34.9361C86,-31.7483 86,-28.1148 86,-24.6114"/>
<polygon fill="#000000" stroke="#000000" stroke-width=".7" points="86,-19.296 88.2501,-24.2959 86,-21.796 86.0001,-24.296 86.0001,-24.296 86.0001,-24.296 86,-21.796 83.7501,-24.296 86,-19.296 86,-19.296"/>
</g>
<!-- Input : 0 -->
<g id="node35" class="node">
<title>Input : 0</title>
<path fill="#000000" stroke="#000000" d="M106.6667,-980C106.6667,-980 65.3333,-980 65.3333,-980 62.1667,-980 59,-976.8333 59,-973.6667 59,-973.6667 59,-967.3333 59,-967.3333 59,-964.1667 62.1667,-961 65.3333,-961 65.3333,-961 106.6667,-961 106.6667,-961 109.8333,-961 113,-964.1667 113,-967.3333 113,-967.3333 113,-973.6667 113,-973.6667 113,-976.8333 109.8333,-980 106.6667,-980"/>
<text text-anchor="middle" x="86" y="-968" font-family="Times,serif" font-size="10.00" fill="#ffffff">Input</text>
</g>
<!-- Input : 0&#45;&gt;Name : MobilenetV1/MobilenetV1/Conv2d_0/Relu6/Mul/Bias/InCast
Info :  -->
<g id="edge34" class="edge">
<title>Input : 0&#45;&gt;Name : MobilenetV1/MobilenetV1/Conv2d_0/Relu6/Mul/Bias/InCast
Info : </title>
<path fill="none" stroke="#000000" stroke-width=".7" d="M86,-960.9361C86,-957.7483 86,-954.1148 86,-950.6114"/>
<polygon fill="#000000" stroke="#000000" stroke-width=".7" points="86,-945.296 88.2501,-950.2959 86,-947.796 86.0001,-950.296 86.0001,-950.296 86.0001,-950.296 86,-947.796 83.7501,-950.296 86,-945.296 86,-945.296"/>
</g>
</g>
</svg>
